<svg xmlns="http://www.w3.org/2000/svg" xmlns:xlink="http://www.w3.org/1999/xlink" version="1.1" x="0px" y="0px" viewBox="0 0 425.2 531.5" enable-background="new 0 0 425.2 425.2" xml:space="preserve"><path d="M63.199,177.826c2.228-0.56,26.808-2.582,26.808-2.582c2.773-0.273,33.977-1.817,33.977-1.817  c11.152-0.445,22.308-0.813,33.469-0.999c-11.163-0.049-60.234,0.737-66.353,1.16c-3.866,0.267-10.896,1.153-15.868,1.845  c0.246-0.176,0.416-0.449,0.416-0.774c0-0.05-0.021-0.093-0.028-0.141l-0.023-0.447c5.125-0.618,11.078-1.36,11.51-1.415  c0.151-0.027,3.737-0.719,6.275-5.062c2.835-4.85,18.584-33.358,18.729-33.621c0.1-0.163,0.956-1.624,0.364-2.679  c-0.224-0.4-0.735-0.877-1.895-0.877c-0.313,0-0.67,0.034-1.06,0.101c-3.542,0.61-16.112,3.208-17.245,3.564  c-0.147,0.046-0.283,0.085-0.409,0.121c-0.961,0.274-1.55,0.498-2.47,1.909l-22.373,35.053c-0.195,0.311-1.142,1.916-0.557,2.975  c0.195,0.353,0.625,0.773,1.572,0.773c0.085,0,0.176-0.003,0.271-0.01c0.615-0.046,2.771-0.293,5.413-0.609l-0.006,0.336  c0,0.009-0.005,0.017-0.005,0.026c0,0.008,0.004,0.014,0.004,0.021l0,0.029l0.006-0.001c0.021,0.389,0.267,0.716,0.612,0.851  c-2.112,0.299-3.746,0.548-4.419,0.674C67.655,176.671,65.385,177.104,63.199,177.826z M75.529,172.77l-0.203-3.917l2.017-4.446  l3.045-5.25l0.401,1.023l-1.174,5.124l1.17,0.269l2.69-11.737l6.632-11.434c0.203-0.351,0.47-0.305,0.543-0.282l0.061,0.021  l0.064-0.002c0.021,0,1.377-0.049,2.725-0.055v0.009c0.356,0.007,0.68,0.021,0.939,0.044c0.234,0.021,0.275,0.104,0.288,0.131  c0.153,0.314-0.237,1.165-0.569,1.676L79.964,172.23C78.519,172.407,76.993,172.593,75.529,172.77z M80.799,172.128l13.963-27.835  c0.155-0.236,0.858-1.381,0.64-2.168c0.058,0.004,0.117,0.008,0.169,0.012c0.234,0.021,0.275,0.104,0.288,0.131  c0.153,0.314-0.237,1.165-0.569,1.676l-14.119,28.138C81.049,172.097,80.925,172.112,80.799,172.128z M92.26,166.939  c-2.222,3.799-5.259,4.415-5.35,4.433c-0.035,0.004-0.8,0.1-1.994,0.248l13.842-27.806c0.003-0.012,0.328-1.185,1.985-1.239  c0.398-0.003,2.078,0.073,4.987,0.248C100.832,151.665,94.026,163.918,92.26,166.939z M90.488,136.819  c0.696-1.068,1-1.154,1.734-1.364c0.137-0.039,0.283-0.081,0.442-0.131c1.072-0.337,13.679-2.938,17.076-3.523  c0.317-0.055,0.6-0.083,0.839-0.083c0.386,0,0.659,0.075,0.747,0.2c-0.13,0.015-0.258,0.027-0.397,0.052  c-3.536,0.609-16.079,3.201-17.206,3.555c-0.15,0.047-0.288,0.086-0.417,0.124c-0.918,0.262-1.438,0.459-2.299,1.782l-5.888,9.225  l0.039-0.17l-0.732-0.168L90.488,136.819z M73.747,172.984c-0.515,0.062-1.011,0.121-1.482,0.176l1.529-2.636L73.747,172.984z   M68.636,172.481c-0.02,0.031-0.328,0.534-0.53,1.129c-0.287,0.007-0.473-0.044-0.502-0.097c-0.124-0.224,0.129-1.028,0.518-1.65  l15.586-24.42l-0.509,2.222L68.636,172.481z"/><path d="M393.361,192.418c-0.016-0.05-0.401-1.212-1.294-1.283l-11.125-0.254c-0.318,0.018-0.567,0.132-0.742,0.341  c-0.322,0.387-0.255,0.953-0.252,0.977l0.016,0.128l13.463,0.291L393.361,192.418z M380.611,192.042  c0.075-0.035,0.155-0.062,0.246-0.062c0.005,0,0.009,0,0.013,0l11.386,0.245c0.093,0.002,0.187,0.036,0.278,0.074L380.611,192.042z   M392.261,191.925l-11.386-0.245c-0.006,0-0.012,0-0.018,0c-0.234,0-0.444,0.085-0.604,0.237c0.013-0.156,0.048-0.35,0.177-0.504  c0.119-0.142,0.296-0.22,0.515-0.232l11.105,0.253c0.424,0.034,0.706,0.428,0.866,0.73  C392.716,192.017,392.488,191.93,392.261,191.925z"/><path d="M393.519,195.909c-0.017-0.05-0.405-1.21-1.299-1.278l-11.125-0.218c-0.317,0.019-0.566,0.134-0.74,0.344  c-0.321,0.388-0.252,0.954-0.249,0.978l0.017,0.128l13.462,0.247L393.519,195.909z M380.766,195.574  c0.076-0.036,0.158-0.063,0.25-0.063c0.004,0,0.007,0,0.01,0l11.386,0.208c0.094,0.001,0.188,0.035,0.279,0.073L380.766,195.574z   M392.417,195.419l-11.387-0.208c-0.251,0-0.46,0.083-0.619,0.237c0.013-0.156,0.047-0.348,0.176-0.502  c0.118-0.142,0.295-0.221,0.514-0.234l11.104,0.217c0.424,0.032,0.708,0.425,0.87,0.728  C392.873,195.509,392.644,195.423,392.417,195.419z"/><path d="M393.676,199.399c-0.017-0.049-0.409-1.209-1.303-1.275l-11.125-0.181c-0.318,0.02-0.566,0.136-0.739,0.346  c-0.32,0.389-0.25,0.955-0.246,0.979l0.017,0.128l13.462,0.203L393.676,199.399z M380.912,199.106  c0.079-0.039,0.166-0.065,0.272-0.064l11.385,0.17c0.095,0.001,0.189,0.035,0.283,0.074L380.912,199.106z M392.574,198.913  l-11.386-0.17c-0.004,0-0.008,0-0.011,0c-0.237,0-0.449,0.086-0.609,0.241c0.013-0.156,0.046-0.349,0.173-0.503  c0.118-0.143,0.295-0.223,0.514-0.237l11.106,0.18c0.423,0.031,0.707,0.422,0.87,0.724  C393.028,199.001,392.799,198.917,392.574,198.913z"/><path d="M393.834,202.889c-0.017-0.049-0.413-1.208-1.307-1.27l-11.126-0.146c-0.317,0.021-0.566,0.138-0.738,0.349  c-0.319,0.39-0.247,0.956-0.243,0.979l0.018,0.128l13.463,0.158L393.834,202.889z M381.081,202.638  c0.077-0.037,0.16-0.064,0.255-0.064c0.002,0,0.004,0,0.005,0l11.387,0.133c0.094,0.001,0.188,0.034,0.279,0.072L381.081,202.638z   M392.731,202.407l-11.388-0.133c-0.002,0-0.005,0-0.007,0c-0.239,0-0.452,0.087-0.612,0.244c0.012-0.157,0.045-0.35,0.172-0.505  c0.117-0.144,0.294-0.224,0.514-0.239l11.105,0.145c0.424,0.029,0.71,0.42,0.874,0.721  C393.186,202.494,392.957,202.409,392.731,202.407z"/><path d="M393.993,206.38c-0.017-0.049-0.418-1.207-1.312-1.266l-11.127-0.108c-0.317,0.021-0.564,0.14-0.736,0.351  c-0.317,0.391-0.243,0.957-0.239,0.98l0.018,0.128l13.464,0.114L393.993,206.38z M381.235,206.17  c0.078-0.038,0.163-0.065,0.26-0.065c0.001,0,0.002,0,0.003,0l11.387,0.096c0.094,0,0.189,0.033,0.283,0.071L381.235,206.17z   M392.886,205.901l-11.387-0.096c-0.002,0-0.003,0-0.003,0c-0.241,0-0.455,0.088-0.615,0.245c0.012-0.157,0.044-0.35,0.171-0.505  c0.116-0.144,0.293-0.224,0.512-0.24l11.106,0.108c0.423,0.028,0.71,0.417,0.875,0.718  C393.341,205.986,393.113,205.902,392.886,205.901z"/><path d="M394.15,209.87c-0.017-0.049-0.42-1.205-1.314-1.261l-11.127-0.072c-0.317,0.022-0.564,0.142-0.735,0.354  c-0.316,0.392-0.24,0.958-0.236,0.981l0.019,0.128l13.463,0.069L394.15,209.87z M381.39,209.703c0.079-0.04,0.166-0.067,0.264-0.067  l11.387,0.059c0.094,0,0.188,0.033,0.281,0.069L381.39,209.703z M393.042,209.395l-11.388-0.059c-0.241,0-0.455,0.088-0.615,0.246  c0.01-0.156,0.042-0.349,0.167-0.504c0.116-0.144,0.293-0.226,0.512-0.242l11.106,0.072c0.425,0.026,0.713,0.415,0.879,0.715  C393.5,209.479,393.27,209.396,393.042,209.395z"/><path d="M394.308,213.36c-0.017-0.049-0.425-1.204-1.319-1.257l-11.126-0.035c-0.317,0.023-0.565,0.144-0.735,0.355  c-0.314,0.393-0.237,0.958-0.233,0.981l0.019,0.129l13.465,0.025L394.308,213.36z M381.551,213.235  c0.078-0.039,0.163-0.066,0.26-0.066l11.388,0.021c0.094,0,0.189,0.032,0.282,0.069L381.551,213.235z M393.199,212.889  l-11.388-0.021c-0.241,0-0.456,0.089-0.616,0.249c0.011-0.157,0.042-0.351,0.168-0.507c0.116-0.144,0.291-0.226,0.511-0.243  l11.106,0.035c0.424,0.025,0.714,0.413,0.88,0.713C393.656,212.971,393.426,212.889,393.199,212.889z"/><path d="M394.465,216.851c-0.017-0.049-0.428-1.202-1.322-1.253l-11.128,0.002c-0.317,0.023-0.564,0.145-0.733,0.357  c-0.314,0.395-0.234,0.959-0.23,0.982l0.02,0.129l13.464-0.019L394.465,216.851z M381.707,216.767  c0.078-0.039,0.164-0.067,0.262-0.067l11.388-0.018c0.095,0,0.19,0.032,0.284,0.068L381.707,216.767z M393.356,216.382  l-11.389,0.018c-0.242,0.001-0.456,0.091-0.615,0.251c0.01-0.157,0.04-0.35,0.164-0.506c0.115-0.146,0.291-0.229,0.511-0.246  l11.107-0.001c0.425,0.024,0.715,0.41,0.882,0.709C393.812,216.463,393.583,216.382,393.356,216.382z"/><path d="M393.296,219.092l-11.127,0.039c-0.317,0.025-0.564,0.146-0.733,0.359c-0.313,0.396-0.23,0.961-0.227,0.984l0.02,0.127  l13.464-0.063l-0.069-0.199C394.606,220.292,394.191,219.14,393.296,219.092z M381.863,220.299c0.078-0.039,0.165-0.068,0.263-0.068  l11.388-0.055c0,0,0.001,0,0.002,0c0.094,0,0.188,0.031,0.28,0.067L381.863,220.299z M393.515,219.876c-0.001,0-0.003,0-0.004,0  l-11.388,0.055c-0.242,0.001-0.456,0.093-0.615,0.253c0.01-0.157,0.039-0.351,0.164-0.508c0.115-0.145,0.29-0.229,0.51-0.246  l11.107-0.038c0.424,0.022,0.717,0.409,0.884,0.707C393.97,219.958,393.742,219.876,393.515,219.876z"/><path d="M95.209,170.181c0.583,1.025,1.799,1.545,3.615,1.545c2.145,0,11.038-0.252,20.781-0.55l0.283,0.883l0.006-0.002  c0.127,0.495,0.612,0.814,1.12,0.714c0.524-0.105,0.865-0.615,0.761-1.14c-0.029-0.145-0.093-0.271-0.175-0.381l-0.063-0.134  c13.36-0.412,27.577-0.882,27.849-0.89c0.521,0,5.149-0.108,6.991-3.857c1.745-3.552,14.022-35.652,14.534-36.994  c0.117-0.277,1.112-2.753,0.091-4.292c-0.333-0.501-1.016-1.099-2.384-1.099c-3.167,0-46.996,4.447-48.886,4.64  c-0.126,0.017-3.104,0.45-4.803,3.001l-19.25,34.342C95.529,166.22,94.242,168.48,95.209,170.181z M98.824,170.226  c-0.364,0-0.771-0.028-1.147-0.108c-0.166-1.135,0.626-2.514,0.64-2.536l13.786-24.352c0.716,0.047,1.444,0.096,2.179,0.145  l0.662,3.252l-0.41,2.39l-0.034,0.006l2.771,15.327l1.664,4.731l0.194,0.608C109.571,169.981,100.926,170.226,98.824,170.226z   M120.85,169.636l-2.608-5.62l-0.019,0.021l-2.047-11.349l1.686,8.281l1.176-0.239l-3.516-17.272  c9.543,0.646,19.839,1.4,21.581,1.585l0,0.008c0.263,0.02,0.504,0.04,0.734,0.063c0.027,0.003,0.057,0.005,0.083,0.008  c1.697,0.172,2.466,0.467,2.466,1.328c0,0.873-2.711,12.192-5.308,22.737C130.663,169.33,125.686,169.487,120.85,169.636z   M136.792,169.133c-0.325,0.011-0.654,0.021-0.987,0.032c1.744-7.085,5.281-21.594,5.281-22.714c0-0.446-0.129-0.789-0.348-1.058  c0.961,0.162,1.349,0.429,1.349,1.058C142.087,147.177,140.062,155.852,136.792,169.133z M155.029,165.708  c-1.44,2.932-5.212,3.019-5.726,3.019h-0.001c-0.047,0.001-0.589,0.02-1.519,0.05c0.944-3.784,4.66-18.693,5.037-20.273  c0.386-1.615,1.188-2.306,2.646-2.252c0.432,0.017,2.853,0.177,7.153,0.471C159.303,155.267,155.866,164.005,155.029,165.708z   M96.978,166.717l19.229-34.309c1.286-1.929,3.706-2.295,3.702-2.295c0.456-0.046,45.617-4.629,48.709-4.629  c0.649,0,0.926,0.188,1.052,0.323c-6.231,0.353-46.402,4.429-48.197,4.611c-0.119,0.016-2.924,0.423-4.507,2.799L97.71,167.23  c-0.042,0.072-0.784,1.346-0.764,2.625c-0.183-0.107-0.334-0.241-0.433-0.414C96.056,168.64,96.706,167.181,96.978,166.717z"/><path d="M292.514,156.458c-1.346-7.848-3.457-15.845-3.469-15.883c-0.022-0.126-0.588-3.095-4.295-3.758  c-4.102-0.735-25.67-3.124-26.541-3.218c-0.016-0.003-0.412-0.084-0.941-0.084c-1.135,0-2.021,0.354-2.561,1.025  c-0.593,0.735-0.742,1.806-0.441,3.191c0.021,0.087,2.036,8.799,3.348,18.09c1.32,9.354,1.938,13.986,1.941,13.985  c0.001,1.404,0.771,4.086,3.688,4.198c3.164,0.122,27.674,1.515,27.92,1.529l0.045,0.002l0.043-0.005  c0.055-0.006,0.973-0.132,1.873-0.671l0.018-0.002c-0.001-0.002-0.001-0.005-0.002-0.007c0.368-0.222,0.731-0.506,1.03-0.891  c0.577-0.743,0.799-1.666,0.657-2.745C294.409,168.026,293.856,164.295,292.514,156.458z M259.858,156.576  c-0.108,0.744-0.329,1.871-0.656,3.356c-0.182-1.292-0.379-2.699-0.598-4.25c-0.106-0.756-0.219-1.504-0.334-2.248  c0.35,0.095,0.761,0.276,1.083,0.635C259.849,154.622,260.018,155.464,259.858,156.576z M291.169,174.533  c-1.171-0.067-21.636-1.229-26.96-1.485l4.535-17.107c0.004-0.019,0.521-1.845,3.345-1.523c2.005,0.232,10.433,0.794,17.268,1.232  c0.134,0.718,0.267,1.44,0.39,2.162c1.303,7.604,2.17,13.261,2.593,16.342C291.809,174.413,291.309,174.511,291.169,174.533z   M293.383,173.342c-0.117,0.152-0.253,0.279-0.395,0.396c-0.439-3.153-1.292-8.693-2.552-16.044  c-1.343-7.842-3.455-15.832-3.47-15.883c-0.021-0.122-0.568-2.99-4.174-3.636c-4.096-0.734-26.353-3.089-26.543-3.107  c-0.018-0.003-0.241-0.047-0.568-0.069c0.446-0.379,1.086-0.483,1.586-0.483c0.422,0,0.738,0.063,0.785,0.071  c0.225,0.025,22.453,2.487,26.521,3.216c3.001,0.537,3.469,2.852,3.495,2.988c0.021,0.08,2.123,8.035,3.459,15.837  c1.34,7.82,1.892,11.54,2.309,14.719C293.94,172.147,293.789,172.819,293.383,173.342z"/><path d="M329.358,159.776c-1.244-7.26-3.46-14.975-3.471-15c-0.021-0.118-0.548-2.886-4-3.504  c-3.791-0.68-21.584-2.602-22.299-2.678c-0.014-0.002-0.348-0.066-0.803-0.066c-0.759,0-1.8,0.171-2.455,0.984  c-0.563,0.697-0.706,1.706-0.424,3.006c0.019,0.08,1.881,8.096,3.093,16.682c1.211,8.586,1.79,13.132,1.794,13.131  c0,1.31,0.719,3.813,3.442,3.918c2.925,0.113,23.646,1.272,23.854,1.284l0.032,0.002l0.032-0.002  c0.071-0.005,1.759-0.14,2.734-1.336c0.549-0.672,0.76-1.527,0.627-2.541C331.143,170.817,330.625,167.171,329.358,159.776z   M325.043,176.362c-0.146-0.408-0.171-0.73-0.171-0.732l-0.596-13.516c-0.02-0.111-0.44-2.616,1.843-3.341  c-1.482,1.271-1.131,3.373-1.119,3.42l0.59,13.469c0.001,0.019,0.02,0.325,0.144,0.739  C325.515,176.388,325.285,176.375,325.043,176.362z M328.109,176.533c-0.151-0.008-0.734-0.041-1.615-0.09  c-0.175-0.446-0.204-0.811-0.204-0.813l-0.596-13.517c-0.003-0.018-0.269-1.521,0.599-2.554c0.109,0.577,0.216,1.154,0.314,1.729  c1.117,6.527,1.981,11.907,2.415,15.016C328.593,176.468,328.212,176.521,328.109,176.533z M330.118,175.56  c-0.128,0.158-0.279,0.285-0.438,0.396c-0.445-3.152-1.295-8.426-2.384-14.786c-1.242-7.252-3.456-14.959-3.47-15  c-0.021-0.113-0.528-2.781-3.879-3.382c-3.413-0.611-19.418-2.424-22.676-2.79c0.421-0.37,1.035-0.47,1.514-0.47  c0.346,0,0.598,0.045,0.655,0.054c0.185,0.02,18.514,2,22.271,2.674c2.745,0.491,3.175,2.606,3.203,2.745  c0.022,0.077,2.223,7.74,3.457,14.944c1.264,7.378,1.781,11.013,2.152,13.841C330.62,174.513,330.483,175.11,330.118,175.56z"/><path d="M332.951,144.005c-0.557,0.69-0.703,1.667-0.427,2.935c0.021,0.074,2.15,7.496,3.27,15.427  c1.12,7.94,1.656,12.217,1.66,12.216c0,1.224,0.674,3.564,3.223,3.663c2.707,0.104,21.873,1.15,22.066,1.161l0.032,0.002  l0.031-0.002c0.066-0.005,1.645-0.131,2.558-1.25c0.514-0.63,0.712-1.431,0.588-2.379c-0.273-2.088-0.714-4.643-1.444-8.874  l-0.69-4.015c-1.149-6.712-3.028-14.045-3.039-14.081c-0.02-0.11-0.513-2.696-3.731-3.273c-3.509-0.628-20.401-2.45-21.107-2.526  C335.941,143.008,333.975,142.734,332.951,144.005z M362.759,178.406c-0.965-0.053-19.388-1.057-22.044-1.159  c-2.222-0.085-2.261-2.56-2.266-2.726c-0.005-0.042-0.542-4.327-1.666-12.294c-0.185-1.309-0.398-2.6-0.624-3.852  c6.552-0.161,15.629-0.395,23.644-0.611c0.459,2.122,0.937,4.481,1.329,6.773c0.56,3.267,1.104,6.093,1.54,8.365  c0.423,2.193,0.757,3.95,0.953,5.281C363.222,178.342,362.859,178.395,362.759,178.406z M359.801,149.018  c0.019,0.073,1.887,7.366,3.029,14.038l0.691,4.016c0.728,4.219,1.167,6.766,1.438,8.834c0.087,0.663-0.037,1.205-0.367,1.613  c-0.094,0.115-0.201,0.211-0.314,0.299c-0.202-1.314-0.521-2.989-0.918-5.048c-0.437-2.268-0.979-5.091-1.538-8.351  c-1.147-6.706-3.024-14.033-3.037-14.08c-0.019-0.105-0.492-2.591-3.61-3.151c-3.151-0.563-18.305-2.191-21.461-2.527  c0.007-0.009,0.01-0.021,0.017-0.029c0.455-0.565,1.296-0.649,1.757-0.649c0.187,0,0.312,0.014,0.334,0.017  c0.176,0.019,17.575,1.896,21.05,2.518C359.383,146.968,359.778,148.902,359.801,149.018z"/><path d="M366.49,164.943c1.407,7.285,1.944,11.517,1.948,11.517c0,1.147,0.632,3.34,3.022,3.432  c2.511,0.097,20.146,1.037,20.323,1.047l0.031,0.001l0.031-0.002c0.063-0.004,1.54-0.123,2.396-1.172  c0.483-0.592,0.669-1.344,0.553-2.234c-0.32-2.438-0.935-5.733-2.269-12.159c-1.284-6.182-3.347-13.305-3.355-13.323  c-0.018-0.103-0.479-2.523-3.489-3.063c-3.254-0.582-18.415-2.279-19.014-2.344c-0.034-0.007-0.343-0.068-0.765-0.068  c-0.934,0-1.665,0.294-2.113,0.852c-0.491,0.608-0.615,1.487-0.371,2.612C363.435,150.112,365.062,157.547,366.49,164.943z   M381.488,179.394c-4.415-0.23-8.823-0.457-9.988-0.501c-1.989-0.077-2.06-2.193-2.065-2.495c-0.005-0.042-0.545-4.306-1.962-11.644  c-0.479-2.477-0.979-4.952-1.434-7.161c6.444-0.18,10.53-0.305,11.52-0.353c3.187-0.167,3.563,3.631,3.576,3.777l0.851,16.189  C381.988,177.221,382.178,178.514,381.488,179.394z M364.569,148.053c0.319-0.396,0.901-0.479,1.335-0.479  c0.313,0,0.546,0.044,0.608,0.055c0.157,0.018,15.772,1.766,18.994,2.342c2.304,0.413,2.667,2.181,2.692,2.306  c0.021,0.071,2.073,7.156,3.35,13.3c1.327,6.398,1.938,9.674,2.255,12.085c0.081,0.612-0.028,1.093-0.332,1.468  c-0.2,0.247-0.463,0.419-0.722,0.54c-0.291-1.969-0.803-4.925-1.429-8.54l-0.722-4.181c-1.064-6.229-3.347-13.316-3.357-13.34  c-0.018-0.099-0.46-2.421-3.368-2.942c-2.986-0.534-16.748-1.928-19.5-2.205C364.419,148.306,364.479,148.165,364.569,148.053z"/><path d="M124.263,251.516c9.134,0,16.564-7.472,16.564-16.656c0-9.186-7.431-16.658-16.564-16.658s-16.564,7.473-16.564,16.658  C107.699,244.044,115.129,251.516,124.263,251.516z M124.263,219.202c8.582,0,15.564,7.023,15.564,15.658  c0,8.633-6.982,15.656-15.564,15.656s-15.564-7.023-15.564-15.656C108.699,226.225,115.681,219.202,124.263,219.202z"/><path d="M123.534,249.43c7.422,0,13.461-6.537,13.461-14.57c0-8.035-6.039-14.57-13.461-14.57c-7.422,0-13.46,6.535-13.46,14.57  C110.074,242.893,116.112,249.43,123.534,249.43z M135.995,234.86c0,5.498-3.023,10.232-7.35,12.362  c-4.968-0.497-8.839-5.871-8.839-12.329c0-6.391,3.86-11.808,8.787-12.334l-0.01-0.095  C132.943,224.579,135.995,229.334,135.995,234.86z M123.534,221.29c1.227,0,2.409,0.201,3.529,0.563  c-4.793,1.338-8.257,6.65-8.257,13.041c0,6.275,3.46,11.604,8.146,13.005c-1.088,0.339-2.232,0.532-3.419,0.532  c-6.871,0-12.46-6.088-12.46-13.57C111.074,227.376,116.663,221.29,123.534,221.29z"/><path d="M135.281,210.526c1.245,1.649,3.313,2.635,5.597,2.635c3.699,0,6.709-2.617,6.709-5.833c0-3.217-3.01-5.834-6.709-5.834  c-2.037,0-3.97,0.823-5.237,2.201c-2.215,0.009-4.015,1.544-4.015,3.432C131.626,208.908,133.237,210.361,135.281,210.526z   M140.878,202.493c3.148,0,5.709,2.168,5.709,4.834c0,2.665-2.561,4.833-5.709,4.833c-1.677,0-3.257-0.641-4.333-1.704  c1.571-0.341,2.58-1.588,2.58-3.331c0-1.613-0.867-2.799-2.24-3.238C137.945,203.007,139.375,202.493,140.878,202.493z   M135.66,204.692c1.818,0,2.466,1.257,2.466,2.434c0,1.176-0.648,2.433-2.466,2.433c-1.672,0-3.033-1.091-3.033-2.433  C132.626,205.784,133.987,204.692,135.66,204.692z"/><path d="M245.921,205.368c1.577,0,3.022-0.72,3.835-1.883c0.191,0.226,0.469,0.38,0.789,0.38c0.004,0,0.008,0,0.012,0l2.836-0.027  c0.279-0.002,0.536-0.111,0.725-0.308c0.179-0.187,0.273-0.432,0.264-0.689l-0.08-2.5c-0.017-0.538-0.48-0.972-1.037-0.972  c-0.002,0-0.006,0-0.008,0l-2.838,0.027c-0.211,0.002-0.4,0.083-0.565,0.2c-0.784-1.236-2.296-2.029-3.932-2.029  c-2.478,0-4.493,1.75-4.493,3.9S243.444,205.368,245.921,205.368z M250.848,202.377c0.004,0.104,0.039,0.197,0.088,0.283  l-8.047-0.515c-0.001,0-0.002,0-0.004,0c-0.201,0-0.368-0.154-0.376-0.361l-0.046-0.335c-0.004-0.088,0.029-0.171,0.091-0.236  c0.066-0.069,0.158-0.108,0.267-0.109l8.063-0.52c-0.051,0.095-0.086,0.198-0.082,0.309L250.848,202.377z M249.913,199.913  c0.131-0.137,0.313-0.214,0.51-0.216l2.836-0.027c0.002,0,0.004,0,0.006,0c0.396,0,0.726,0.304,0.736,0.681l0.082,2.5  c0.006,0.176-0.059,0.344-0.182,0.472c-0.132,0.137-0.313,0.214-0.51,0.215l-2.838,0.027c-0.002,0-0.005,0-0.008,0  c-0.391,0-0.719-0.301-0.733-0.675l1.562,0.1v-0.007c0.05,0.012,0.098,0.029,0.15,0.029l1.69-0.017  c0.181-0.001,0.349-0.072,0.472-0.2c0.119-0.124,0.181-0.284,0.176-0.454l-0.049-1.483c-0.01-0.351-0.313-0.636-0.682-0.636  l-1.684,0.016c-0.021,0-0.04,0.011-0.061,0.013l-1.652,0.106C249.737,200.192,249.795,200.034,249.913,199.913z M251.406,200.548  c0.016-0.002,0.029-0.009,0.046-0.009l1.688-0.016c0.2,0,0.368,0.155,0.373,0.345l0.049,1.483c0.004,0.088-0.029,0.171-0.091,0.236  c-0.067,0.069-0.158,0.107-0.259,0.108l-1.684,0.017l-0.004,0.15v-0.15c-0.2,0-0.369-0.155-0.375-0.345l-0.047-1.484  c-0.004-0.087,0.028-0.171,0.09-0.235c0.05-0.053,0.117-0.081,0.189-0.096l0.025-0.001L251.406,200.548z M245.921,197.868  c1.556,0,2.991,0.759,3.71,1.938c-0.124,0.167-0.201,0.362-0.198,0.572l-6.624,0.428c-0.182,0.002-0.349,0.073-0.472,0.202  c-0.118,0.123-0.18,0.284-0.173,0.469l0.047,0.335c0.011,0.352,0.313,0.635,0.662,0.635c0.003,0,0.006,0,0.008,0l6.629,0.425v0.024  c0.004,0.112,0.037,0.215,0.076,0.315c-0.741,1.146-2.137,1.858-3.665,1.858c-2.313,0-4.194-1.615-4.194-3.6  S243.609,197.868,245.921,197.868z"/><path d="M370.283,275.163c3.923,0,6.776-5.049,6.834-12.031c0.002-0.072,0.012-0.139,0.012-0.213s-0.01-0.141-0.012-0.213  c-0.058-6.982-2.911-12.031-6.834-12.031c-4.084,0-7.406,5.492-7.406,12.244S366.199,275.163,370.283,275.163z M374.811,266.43  c-1.081,0-1.995-1.607-1.995-3.512c0-1.902,0.914-3.512,1.995-3.512c1.036,0,1.817,1.51,1.817,3.512S375.847,266.43,374.811,266.43z   M364.32,263.958l-0.952-1.127c0.028-6.441,3.118-11.668,6.915-11.668c3.072,0,5.496,3.645,6.163,8.84  c-0.41-0.686-0.978-1.096-1.635-1.096c-1.399,0-2.495,1.762-2.495,4.012c0,0.09,0.013,0.174,0.016,0.262  c-0.619,0.119-4.915,0.936-5.448,0.781c-0.574-0.166-1.295-0.438-1.295-0.438L364.32,263.958z"/><path d="M91.092,275.266l-33.672-3.82c-1.015-0.124-1.811,0.602-1.811,1.588v8.396c0,0.953,0.773,1.824,1.721,1.941l33.679,4.528  c0.075,0.009,0.148,0.015,0.221,0.015c0.907,0,1.59-0.689,1.59-1.602v-9.105C92.82,276.255,92.046,275.385,91.092,275.266z   M92.12,286.313c0,0.566-0.483,0.955-1.021,0.893l-33.679-4.527c-0.602-0.075-1.111-0.646-1.111-1.248v-8.396  c0-0.523,0.375-0.902,0.89-0.902c0.044,0,0.088,0.004,0.138,0.01l33.672,3.819c0.613,0.077,1.111,0.636,1.111,1.247V286.313z"/><ellipse cx="57.392" cy="277.309" rx="0.542" ry="0.791"/><ellipse cx="90.934" cy="281.85" rx="0.542" ry="0.791"/><polygon points="64.064,277.17 63.378,275.469 62.681,276.997 61.134,277.061 62.248,278.459 61.977,280.202 63.362,279.538   64.742,280.549 64.484,278.741 65.608,277.625 "/><polygon points="69.528,277.86 68.844,276.159 68.146,277.686 66.599,277.75 67.712,279.149 67.441,280.891 68.828,280.227   70.206,281.239 69.949,279.43 71.073,278.315 "/><polygon points="74.994,278.549 74.309,276.846 73.611,278.375 72.064,278.44 73.178,279.836 72.907,281.579 74.293,280.917   75.671,281.928 75.414,280.12 76.539,279.004 "/><polygon points="80.458,279.239 79.773,277.536 79.076,279.065 77.529,279.127 78.642,280.526 78.372,282.268 79.757,281.604   81.137,282.618 80.879,280.807 82.003,279.692 "/><polygon points="85.924,279.928 85.239,278.225 84.542,279.752 82.995,279.817 84.108,281.215 83.836,282.958 85.223,282.293   86.601,283.307 86.345,281.497 87.468,280.381 "/><path d="M84.863,188.505c-6.375,0-12.797,7.868-15.27,18.71c-1.58,6.934-0.902,13.321,1.767,16.667  c1.285,1.611,2.987,2.463,4.92,2.463c7.049,0,14.466-8.318,16.887-18.937c1.443-6.332,0.604-12.246-2.247-15.819  C89.312,189.571,87.217,188.505,84.863,188.505z M92.485,207.252c-0.853,3.739-2.381,7.215-4.3,10.122  c-0.294,0.445-0.599,0.873-0.91,1.289c-3.17,4.246-7.187,6.98-10.994,6.98c-1.738,0-3.209-0.738-4.373-2.197  c-1.081-1.355-1.812-3.254-2.18-5.5c-0.023-0.141-0.044-0.283-0.064-0.426c-0.416-2.949-0.228-6.461,0.612-10.15  c2.362-10.356,8.633-18.165,14.587-18.165c2.133,0,4.039,0.975,5.511,2.819C93.093,195.433,93.882,201.126,92.485,207.252z"/><path d="M85.752,191.929c-0.221-0.074-0.446-0.135-0.676-0.182c-0.066,0.226-0.132,0.45-0.197,0.676  c-1.328,4.601-2.5,9.211-3.519,13.609c-0.076,0.329-0.151,0.656-0.226,0.982l0.521,0.867l4.491,7.462l0.409,0.682  c0.14-0.223,0.276-0.447,0.411-0.676c1.41-2.403,2.523-5.146,3.224-7.883c1.381-5.394,0.832-10.386-1.472-13.353  C87.888,193.043,86.88,192.311,85.752,191.929z M89.513,207.293c-0.697,2.722-1.725,5.224-2.958,7.374l-4.676-7.772  c1.055-4.603,2.278-9.454,3.675-14.293c0.989,0.343,1.876,0.993,2.613,1.942C90.338,197.341,90.841,202.107,89.513,207.293z"/><path d="M80.913,211.246l-0.525-0.883c-0.073,0.338-0.145,0.672-0.216,1.005c-0.834,3.9-1.538,7.527-2.114,10.703  c-0.044,0.242-0.087,0.48-0.13,0.719c0.247-0.029,0.491-0.076,0.734-0.133c2.151-0.484,4.152-1.914,5.894-3.916  c0.161-0.186,0.322-0.371,0.479-0.564l-0.398-0.67L80.913,211.246z M78.801,221.897c0.528-2.895,1.16-6.15,1.898-9.642l3.465,5.828  C82.498,220.022,80.65,221.366,78.801,221.897z"/><path d="M77.847,208.802l0.983-1.179c0.113-0.5,0.227-1,0.344-1.506c1.019-4.393,2.189-8.996,3.517-13.587  c0.075-0.26,0.153-0.519,0.229-0.778c-0.263,0.061-0.53,0.144-0.804,0.25c-3.912,1.525-8.781,7.594-10.467,15.133  c-0.68,3.047-0.788,5.973-0.398,8.483c0.047,0.307,0.095,0.611,0.157,0.904l0.583-0.699L77.847,208.802z M72.333,207.287  c1.574-7.041,5.932-12.747,9.54-14.439c-1.406,4.906-2.632,9.813-3.688,14.456l-6.331,7.591  C71.586,212.6,71.735,209.966,72.333,207.287z"/><path d="M77.249,211.554l-4.898,5.832l-0.531,0.633c0.087,0.258,0.186,0.502,0.287,0.746c0.333,0.799,0.726,1.531,1.209,2.133  c0.533,0.666,1.14,1.164,1.799,1.492c0.216,0.109,0.438,0.193,0.664,0.264c0.042-0.234,0.085-0.471,0.129-0.713  c0.549-3.01,1.211-6.418,1.988-10.07c0.103-0.484,0.207-0.97,0.313-1.462L77.249,211.554z M75.25,221.657  c-0.501-0.283-0.97-0.678-1.387-1.197c-0.506-0.631-0.923-1.41-1.252-2.295l4.33-5.156C76.29,216.125,75.729,219.036,75.25,221.657z  "/><g><path d="M407.437,250.321c-0.834-0.988-2.361-1.318-3.663-1.403c0.194-1.897,0.316-4.135,0.372-6.864   c0.489-24.13-1.973-52.386-2.12-54.05c0.164-0.625,0.93-4.084-1.307-6.23c-0.792-4.493-2.779-15.679-4.789-22.026   c-1.957-6.179-3.895-10.01-5.144-11.926c0.452-0.22,0.884-0.572,0.833-1.149c-0.035-0.403-0.109-1.243-4.07-1.705l-0.03-0.004   c-6.076-5.036-19.568-8.421-28.572-10.675l-1.163-0.291c-7.678-1.928-31.708-6.972-55.052-10.448   c-3.897-0.581-8.324-1.261-13.151-2.004c-24.768-3.811-58.688-9.029-86.969-10.958c-46.592-3.178-64.001-1.563-85.397,3.261   c-17.197,3.877-24.227,10.816-26.924,14.721c-1.048,0.341-3.627,1.254-3.464,3.061c0.099,1.09,1.207,1.866,1.881,2.209   l-27.18,42.729l-0.047,0.095c-0.021,0.058-2.155,5.901-2.405,12.529c-0.023,0.607-0.05,1.209-0.077,1.815   c-0.073,1.619-0.144,3.257-0.145,5.047c-0.649,2.378-1.235,4.676-1.753,6.854c-1.591-0.053-3.061,0.496-4.11,1.452   c-0.156-0.021-0.314-0.042-0.482-0.042c-1.864,0-3.38,1.313-3.38,2.926c0,1.613,1.516,2.925,3.38,2.925   c0.089,0,0.169-0.016,0.254-0.022c0.658,0.68,1.536,1.177,2.544,1.441c-0.343,2.048-0.578,3.894-0.701,5.499   c-0.074-0.01-0.147-0.025-0.224-0.025c-0.889,0-1.653,1.497-1.829,2.591c-1.893,1.993-4.113,6.235-4.288,11.86   c-0.177,5.715,1.834,10.697,3.864,12.619c0.168,1.035,0.599,1.701,1.185,1.836c-0.235,7.019-0.396,13.064-0.463,17.281   c-0.542,0.082-1.043,0.184-1.521,0.295c-0.142,0.031-0.274,0.062-0.399,0.093c-0.1,0.026-0.203,0.051-0.3,0.079   c-0.075,0.021-0.146,0.042-0.214,0.063c-0.067,0.021-0.129,0.043-0.194,0.064c-1.191,0.385-2.13,0.885-2.789,1.503   c-0.433,0.405-0.834,0.875-1.199,1.384c-0.4,0.115-2.266,0.71-2.889,1.918c-0.306,0.597-1.195,3.236-0.75,5.654   c-12.708,1.176-26.574,4.639-27.881,10.898c-0.776,3.719,3.021,7.893,11.288,12.408c15.813,8.635,58.786,17.469,110.325,17.643   c0.378,0.002,0.749,0.002,1.12,0.002c17.495,0,27.159-1.42,27.967-4.113c0.198-0.66-0.169-1.229-0.514-1.592   c4.953,1.173,38.849,8.729,60.622,1.57c7.787-2.561,8.644-6.917,8.725-8.18c0.07-0.08,0.143-0.158,0.213-0.24l89.601-13.604   l-0.856-1.816c3.185,0.34,33.838,3.559,46.321,2.854c2.329-0.133,3.99-0.604,4.936-1.399l-0.08-0.095   c4.866-2.493,8.633-9.174,10.022-17.826c0.537,0.018,1.181,0.031,1.854,0.031c0.67,0,1.37-0.014,2.022-0.053   c4.261-0.25,7.362-0.66,7.508-0.678l-0.111-3.971c-0.034,0.004-3.496,0.412-7.631,0.656c-1.037,0.061-2.23,0.049-3.183,0.023   c0.082-1.14,0.128-2.301,0.128-3.486c0-0.912-0.034-1.813-0.084-2.709l5.278-0.003v0.003c0.737,0.028,1.418,0.043,2.048,0.043   c2.085,0,3.624-0.159,4.888-0.496c0.239,0.545,0.548,1.008,0.946,1.359c0.824,0.729,1.725,0.782,1.964,0.782   c0.038,0,0.059-0.001,0.061-0.001c2.242,0.012,6.464,0.002,8.151-4.235C409.48,254.968,409.217,252.43,407.437,250.321z    M403.605,250.35c0.146,0.074,0.253,0.139,0.326,0.188c-0.072,0.051-0.194,0.104-0.376,0.162   C403.573,250.584,403.588,250.468,403.605,250.35z M401.125,187.45l-4.653-0.115l-2.617-0.097c0.398-2.25-0.146-4.117-0.542-5.092   l6.736,0.358C401.618,184.03,401.311,186.516,401.125,187.45z M253.286,174.707l139.468,7.41c0.366,0.839,1.022,2.778,0.595,5.104   l-91.627-3.385c-0.319-0.014-22.09-0.933-46.754-1.795C255.537,178.763,254.208,176.09,253.286,174.707z M253.165,276.707   c-0.43-0.056-3.055-0.399-4.51-0.593c0.008-0.008,0.016-0.018,0.024-0.025c0.858-0.902,2.454-2.584,2.397-5.471   c-0.088-4.529-2.349-16.426-8.488-22.27c-5.338-5.084-9.985-5.27-17.007-4.972c-5.667,0.241-16.214,0.69-24.131,11.963   c-4.016,5.718-7.238,14.128-9.371,19.693c-0.563,1.471-1.053,2.749-1.464,3.735l-0.106,0.254c-0.454,1.09-0.825,1.965-1.225,2.679   c0.058-0.835-0.068-1.768-0.431-2.817c-0.391-1.136-1.92-1.575-3.296-1.619c-3.1-3.137-9.526-3.096-14.711-3.062   c-0.613,0.005-1.209,0.005-1.768,0.007c-1.009,0.004-2.76,0.025-5.112,0.063c-2.961,0.047-6.931,0.109-11.639,0.145v-0.631   c3.925-0.058,28.545-0.428,30.965-0.661c0.23-0.022,0.476-0.041,0.734-0.062c2.729-0.212,6.852-0.533,9.251-5.511   c0.178-0.37,0.739-1.733,1.587-3.797c2.256-5.491,6.457-15.712,8.664-19.733c2.425-4.419,6.527-4.365,6.742-4.369l45.801-2.566   c0.047,23.71-0.241,30.984-2.665,39.593L253.165,276.707z M253.347,277.692v2.413l-1.333,0.131v-2.671   c0.635,0.082,1.082,0.141,1.082,0.141l0.061,0.008L253.347,277.692z M251.014,277.434v2.72l-2.692-0.46l0.028-2.655l0,0   C248.974,277.122,249.901,277.288,251.014,277.434z M216.075,301.76l-0.003,0.35v-0.35c-4,0-7.69-1.67-10.672-4.829   c-2.294-2.431-3.979-5.543-4.975-9.052c0.936,2.851,2.386,5.387,4.297,7.411c2.773,2.938,6.213,4.49,9.949,4.49h0.001   c9.167-0.002,17.178-9.605,17.858-21.407c0.385-6.678-1.611-12.856-5.479-16.952c-2.773-2.937-6.213-4.489-9.949-4.489   c-6.422,0.002-12.266,4.723-15.43,11.602c3.331-8.01,9.904-13.58,17.145-13.582c3.999,0,7.689,1.67,10.671,4.828   c4.218,4.469,6.395,11.23,5.972,18.552C234.715,291.249,226.02,301.758,216.075,301.76z M225.12,262.648   c-2.574-2.729-5.77-4.17-9.24-4.17c-2.844,0.001-5.56,1.014-7.95,2.748c2.688-2.266,5.852-3.594,9.175-3.595   c3.536,0,6.8,1.478,9.438,4.271c3.735,3.956,5.662,9.944,5.288,16.43c-0.659,11.439-8.357,20.747-17.159,20.749h-0.001   c-3.286,0-6.329-1.29-8.861-3.71c2.292,1.87,4.958,2.863,7.816,2.863h0.003c8.508-0.002,15.942-8.912,16.573-19.861   C230.559,272.18,228.708,266.448,225.12,262.648z M215.882,259.177c3.271,0,6.289,1.366,8.729,3.951   c3.456,3.66,5.238,9.202,4.892,15.204c-0.609,10.587-7.73,19.201-15.874,19.203l-0.003,0.35v-0.35c-3.271,0-6.29-1.366-8.729-3.951   c-3.456-3.661-5.239-9.203-4.892-15.205C200.615,267.792,207.736,259.178,215.882,259.177z M95.541,279.211   c0-0.064,0.03-1.574,2.125-1.574c0.116,0,0.236,0.004,0.363,0.014c13.085,0.955,34.244,1.4,44.424,1.4   c9.593,0,34.694-0.465,42.632-0.789l0.246-0.005c1.325,0,2.385,0.392,2.578,0.952c0.52,1.506,0.551,2.721,0.094,3.611   c-0.435,0.848-1.181,1.125-1.4,1.19c-7.162,2.141-35.362,2.292-47.404,2.356l-1.806,0.006c-14.469,0-33.535-0.857-39.66-1.188   c-0.866-0.046-1.485-0.288-1.84-0.718c-0.428-0.52-0.344-1.178-0.337-1.26L95.541,279.211z M210.257,238.653   c-0.192,0-4.876-0.084-7.605,4.888c-2.234,4.071-6.448,14.325-8.712,19.835c-0.811,1.973-1.397,3.399-1.562,3.742   c-2.15,4.461-5.778,4.742-8.428,4.949c-0.265,0.02-0.517,0.039-0.753,0.063c-2.35,0.228-27.051,0.6-30.869,0.656v-13.826   c0-0.117,0.007-11.916,0.625-27.104c0.583-14.35,1.982-27.32,4.638-42.91c0.974-0.329,1.947-0.645,2.916-0.944l0.935,0   c0.481,0,0.916-0.26,1.195-0.636c15.349-4.423,32.541-6.043,57.429-5.407c10.643,0.271,22.51,0.65,33.826,1.043   c0.16,1.205,0.763,6.867,1.244,26.635c0.375,15.391,0.433,24.382,0.441,26.474L210.257,238.653z M242.329,137.24   c-1.088-2.481-3.137-2.74-4.945-2.967l-0.375-0.047c-1.568-0.209-29.022-3.537-37.61-4.576l0.028-0.143   c5.97,0.722,37.787,4.575,39.557,4.812l0.377,0.048c1.737,0.219,3.379,0.425,4.272,2.465c2.083,4.753,4.667,24.733,5.938,36.413   l-1.319-0.068C247.543,166.8,244.756,142.782,242.329,137.24z M247.542,173.14l-20.49-1.054l4.578-19.185   c0.004-0.018,0.521-1.845,3.345-1.523c1.136,0.131,4.454,0.382,9.841,0.745C246.082,160.359,247.133,169.468,247.542,173.14z    M184.775,148.415c-0.142-0.168-0.303-0.315-0.474-0.448c0.596,0.165,1.227,0.441,1.642,0.924c0.399,0.464,0.54,1.042,0.431,1.769   c-0.057,0.377-0.18,1.003-0.362,1.842c-0.29-0.152-0.591-0.284-0.899-0.402c0.118-0.564,0.206-1.023,0.253-1.336   C185.504,149.837,185.306,149.047,184.775,148.415z M174.157,163.096c-1.573,0.777-3.17,1.567-4.561,2.257   c-0.026-0.029-0.048-0.056-0.063-0.076c-0.386-0.508-0.45-1.447-0.288-2.026c0.298-1.065,3.135-8.77,5.837-16.057l5.927,0.414   v0.006c0.022,0,2.242,0.074,3.23,1.253c0.4,0.479,0.542,1.064,0.433,1.792c-0.043,0.289-0.122,0.702-0.228,1.212   c-0.753-0.219-1.547-0.343-2.37-0.343c-4.687,0-8.5,3.813-8.5,8.5C173.576,161.111,173.787,162.143,174.157,163.096z    M172.053,165.81c0.9-0.446,1.839-0.91,2.771-1.37c0.301,0.492,0.648,0.951,1.039,1.371L172.053,165.81z M178.681,167.816   c0.492,0.215,1.008,0.383,1.542,0.502c-3.697-0.005-7.542-0.009-9.146-0.009c-1.062,0-1.931-0.251-2.63-0.709   c0.171-0.085,0.349-0.174,0.533-0.266c0.577,0.304,1.267,0.475,2.097,0.475C172.408,167.81,175.445,167.812,178.681,167.816z    M181.032,129.396l-0.147,0.016c-0.682,0.057-1.383,0.115-1.901,1.541c-0.262,0.723-1.132,3.061-2.289,6.167l-0.051,0.138   c-3.097,8.321-8.862,23.809-9.323,25.454c-0.281,1.003-0.226,2.445,0.469,3.541c-0.155,0.078-0.306,0.153-0.448,0.224   c-0.752-1.222-0.811-2.801-0.502-3.9c0.469-1.673,6.043-16.647,9.373-25.594c1.163-3.123,2.038-5.476,2.301-6.2   c0.627-1.727,1.602-1.808,2.321-1.868l0.169-0.017c0.608-0.036,8.503,0.157,14.894,0.393l-0.089,0.455   C189.617,129.534,181.569,129.367,181.032,129.396z M167.429,168.109c0.756,0.642,1.909,1.2,3.648,1.2   c3.035,0,14.097,0.016,16.988,0.021l-0.187,0.954l-23.042,0.148c0.344-0.797,0.781-1.372,1.435-1.731   C166.417,168.621,166.833,168.409,167.429,168.109z M183.908,168.324c0.535-0.118,1.051-0.285,1.543-0.499   c1.169,0.001,2.18,0.003,2.908,0.004l-0.098,0.501C187.483,168.329,185.87,168.327,183.908,168.324z M183.66,160.028   c0-0.875-0.709-1.584-1.584-1.584c-0.874,0-1.583,0.709-1.583,1.584h-5.917c0-4.136,3.364-7.5,7.5-7.5s7.5,3.364,7.5,7.5H183.66z    M196.909,129.328c0.521,0.02,1.033,0.041,1.521,0.061l-7.987,40.878l-1.543,0.01L196.909,129.328z M195.513,149.534   c0.5-0.417,1.349-0.783,2.774-0.618c2.709,0.313,17.119,1.229,21.779,1.52c0.381,0.05,1.105,0.219,1.619,0.811   c0.518,0.595,0.694,1.479,0.527,2.629c-0.511,3.512-3.307,14.292-4.213,17.744l-26.428-1.36l-0.11,0L195.513,149.534z    M222.906,153.977c0.198-1.361-0.034-2.434-0.69-3.189c-0.072-0.083-0.151-0.149-0.229-0.219c0.4,0.067,0.978,0.243,1.404,0.719   c0.514,0.571,0.689,1.442,0.523,2.589c-0.52,3.564-3.327,14.374-4.236,17.83l-0.964-0.05   C219.793,167.549,222.401,157.447,222.906,153.977z M244.548,136.43c-1.122-2.56-3.216-2.824-5.063-3.056l-0.373-0.047   c-1.945-0.26-40.26-4.897-40.575-4.933c-6.44-0.271-16.771-0.541-17.607-0.494l-0.185,0.018c-0.755,0.063-2.326,0.194-3.171,2.523   c-0.262,0.724-1.137,3.073-2.298,6.192c-3.336,8.961-8.919,23.96-9.399,25.673c-0.338,1.205-0.354,3.066,0.568,4.62   c-0.451,0.227-0.768,0.39-0.896,0.459c-1.18,0.648-1.842,1.657-2.323,3.056l-2.436,0.016c0.216-0.829,0.451-1.216,0.453-1.22   l14.343-39.27c1.179-3.186,3.543-3.385,4.442-3.46l0.164-0.016c0.609-0.069,11.898,0.129,18.465,0.407   c1.738,0.2,38.714,4.683,40.656,4.941l0.361,0.046c1.905,0.241,4.785,0.604,6.248,3.943c2.684,6.124,5.629,32.476,6.176,37.546   l-1.518-0.078C250.008,168.03,247.102,142.258,244.548,136.43z M162.8,171.945c-0.203,0.863-0.386,1.827-0.589,2.926l-0.038,0.203   c-0.097,0.523-0.323,1.683-0.55,2.847l-0.265,1.362l-1.771,0c-0.057,0-0.109,0.024-0.165,0.031c0.523-2.612,0.963-4.974,1.03-6.455   c0.015-0.323,0.039-0.622,0.069-0.898L162.8,171.945z M159.586,180.282l3.024,0.001c0.083,0,0.148,0.026,0.189,0.074   c0.041,0.047,0.055,0.114,0.042,0.196l-0.907,6.03c-0.035,0.224-0.266,0.419-0.495,0.419l-1.03,0l-0.005-0.018   c-0.019,0.006-0.037,0.012-0.055,0.018l-2.075,0c-0.083,0-0.148-0.026-0.189-0.074c-0.041-0.047-0.055-0.114-0.044-0.185   l0.731-4.205c0.103-0.512,0.205-1.026,0.308-1.532c0.034-0.167,0.067-0.332,0.101-0.499   C159.276,180.377,159.43,180.282,159.586,180.282z M253.956,182.005c-11.328-0.394-23.21-0.773-33.865-1.045   c-24.65-0.63-41.798,0.953-57.089,5.268l0.831-5.523c0.057-0.366-0.042-0.729-0.271-0.997c-0.173-0.203-0.413-0.34-0.68-0.396   l0.215-1.104c0.229-1.17,0.456-2.335,0.553-2.861l0.038-0.203c0.234-1.266,0.433-2.321,0.658-3.209l27.196-0.176l60.643,3.123   C252.973,175.97,254.583,178.687,253.956,182.005z M388.139,146.564c0.606,0.357,0.913,0.621,1.067,0.792   c1.004,1.115,3.349,5.042,5.771,12.691c1.924,6.075,3.837,16.688,4.675,21.433l-146.513-7.785   c-0.402-3.762-3.471-31.81-6.301-38.27c-1.69-3.858-5.17-4.297-7.04-4.534l-0.356-0.045c-1.939-0.258-38.931-4.742-40.706-4.945   c-6.105-0.26-17.95-0.496-18.654-0.405l-0.142,0.014c-1.229,0.103-2.27,0.478-3.13,1.104l0.862-2.36l0.024-1.82   c0.893,0.017,1.789,0.035,2.697,0.057c9.868,0.234,47.672,4.191,68.343,6.744c21.008,2.595,90.8,11.041,91.497,11.125l47.134,6.093   C387.625,146.485,387.884,146.523,388.139,146.564z M117.435,114.823c21.299-4.802,38.642-6.41,85.109-3.239   c28.239,1.926,62.135,7.141,86.885,10.949c4.829,0.743,9.258,1.424,13.156,2.005c23.31,3.471,47.294,8.505,54.955,10.429   l1.164,0.292c8.277,2.071,20.384,5.11,26.794,9.443l-45.079-5.828c-0.702-0.085-70.492-8.53-91.499-11.125   c-20.7-2.557-58.58-6.521-68.491-6.756c-34.717-0.819-57.904,1.747-66.263,2.89c-9.316,1.274-17.282,2.782-22.268,4.2   C94.995,124.203,102.038,118.294,117.435,114.823z M88.319,131.464c0.011-0.259,0.565-0.87,2.574-1.515   c4.719-1.515,13.276-3.185,23.476-4.58c7.259-0.993,25.758-3.066,53.329-3.035l-51.545,4.958l-26.416,5.492l-0.043-0.127   l-0.101,0.158l-0.123,0.025l-0.019-0.012l0.1-0.239C89.109,132.405,88.305,131.818,88.319,131.464z M59.996,191.051   c0.027-0.608,0.055-1.213,0.078-1.822c0.232-6.146,2.124-11.604,2.327-12.172l27.539-43.292l26.363-5.484l60.401-5.807v1.524   l-2.047,5.611c-0.009,0.023-0.02,0.042-0.028,0.066l0.004,0.001l-14.256,39.068c-0.164,0.279-0.806,1.527-0.922,4.069   c-0.073,1.614-0.625,4.402-1.234,7.407c-0.044,0.105-0.097,0.207-0.115,0.321l-0.315,1.813c-0.272,1.355-0.542,2.715-0.771,4.021   c-0.108,0.614-0.21,1.216-0.314,1.822c-0.642,0.22-1.284,0.438-1.922,0.669c-14.427,5.22-41.256,17.118-58.843,38.149   c-10.901,13.036-13.944,26.629-15.58,33.932c-0.191,0.854-0.362,1.615-0.522,2.27c-1.415,5.777-1.818,5.777-3.014,5.777   c-0.741,0-1.133-1.125-1.819-3.28l-0.129-0.405c-0.367-1.148-2.161-8.57-4.237-17.163c-2.426-10.042-5.447-22.538-7.581-30.81   C59.444,203.33,59.724,197.088,59.996,191.051z M58.952,199.587c0.253,4.393,1.052,9.916,3.138,17.997   c2.133,8.264,5.152,20.756,7.578,30.795c2.167,8.967,3.878,16.049,4.257,17.232l0.128,0.404c0.761,2.395,1.264,3.977,2.771,3.977   c1.963,0,2.522-0.563,3.986-6.539c0.162-0.66,0.333-1.428,0.526-2.289c1.617-7.221,4.626-20.658,15.372-33.509   c17.436-20.851,44.083-32.665,58.415-37.851c0.46-0.167,0.925-0.322,1.388-0.483c-2.604,15.394-3.979,28.264-4.558,42.493   c-0.618,15.209-0.625,27.027-0.625,27.145v15.464c-10.131,0.065-23.458-0.006-37.482-0.622c-29.776-1.309-51.411-3.713-60.03-6.508   c-0.015-3.699,0.171-11.654,0.502-21.506c2.394-1.21,3.471-7.911,3.668-14.238c0.167-5.406-0.333-11.885-2.242-13.854   c-0.056-0.058-0.116-0.103-0.174-0.153l0.003-0.047c0.112-1.643,0.356-3.572,0.715-5.723c0.238,0.025,0.479,0.04,0.726,0.04   c0.246-0.003,0.47-0.157,0.52-0.399l1.575-7.656c0.052-0.254-0.099-0.506-0.348-0.58c-0.221-0.065-0.441-0.108-0.662-0.15   C58.366,201.909,58.649,200.764,58.952,199.587z M52.506,209.168c-1.313,0-2.38-0.863-2.38-1.925c0-1.062,1.067-1.926,2.38-1.926   c1.637,0,1.813,1.347,1.813,1.926C54.32,207.822,54.143,209.168,52.506,209.168z M53.906,209.836   c0.882-0.458,1.414-1.371,1.414-2.593c0-1.134-0.453-2.008-1.223-2.495c1.051-0.729,2.477-1.042,3.937-0.728l-1.397,6.79   C55.602,210.752,54.642,210.403,53.906,209.836z M52.399,242.967c-1.716-2.017-3.292-6.396-3.136-11.424   c0.146-4.721,1.894-8.701,3.686-10.822c0.948,1.967,1.334,5.505,1.17,10.797C53.974,236.194,53.659,240.784,52.399,242.967z    M53.083,243.765c1.438-2.153,1.856-6.449,2.036-12.216c0.187-6.021-0.312-9.794-1.568-11.836c0.155-0.803,0.646-1.576,0.83-1.652   c0.22,0,0.431,0.108,0.645,0.33c1.373,1.416,2.16,6.691,1.96,13.127c-0.272,8.754-1.981,13.479-3.452,13.482   C53.444,244.969,53.18,244.613,53.083,243.765z M50.366,264.848c0.17-0.058,0.34-0.115,0.523-0.168   c0.02-0.006,0.042-0.011,0.062-0.016c0.118-0.034,0.245-0.063,0.368-0.095c0.4-0.093,0.904-0.185,1.515-0.271   c-0.013,1.016-0.02,1.905-0.02,2.646c-1.564-0.588-2.572-1.189-2.951-1.802C49.905,265.073,50.059,264.967,50.366,264.848z    M48.116,266.075c0.233-0.219,0.518-0.422,0.845-0.609c0.019,0.043,0.034,0.086,0.06,0.129c3.57,5.897,46.492,8.402,64.781,9.206   c21.177,0.931,40.767,0.62,50.181,0.472c2.342-0.037,4.077-0.066,5.093-0.063c0.564,0,1.161-0.002,1.778-0.007   c4.575-0.03,10.139-0.063,13.202,2.099c-8.84,0.32-32.384,0.75-41.603,0.75c-10.166,0-31.291-0.444-44.351-1.397   c-2.86-0.212-3.558,1.614-3.561,2.558l0.021,3.922c-0.007,0.045-0.158,1.086,0.548,1.955c0.54,0.664,1.404,1.033,2.57,1.096   c6.133,0.33,25.223,1.189,39.714,1.189l1.812-0.006c12.319-0.065,37.149-0.199,46.152-2.026   c-2.785,4.049-11.411,5.054-23.412,5.243c-50.018,0.794-87.575-2.055-111.617-8.459c-1.705-0.455-3.37-1.977-4.209-3.736   c2.426,1.152,5.832,2.136,6.312,2.271c0.244,0.069,0.476,0.104,0.69,0.104c1.225,0,1.67-1.116,1.67-1.867l-0.007-5.084   c-0.016-0.093-0.411-2.271-2.292-2.976c-0.306-0.114-0.637-0.233-0.982-0.358c-1.47-0.529-3.299-1.188-4.356-1.957   c-0.306-0.223-0.467-0.41-0.54-0.549C47.04,267.256,47.549,266.606,48.116,266.075z M44.234,269.105   c0.223-0.432,0.787-0.792,1.325-1.048l0.032,0.018c0.091,0.429,0.414,0.85,0.971,1.256c1.173,0.854,2.997,1.51,4.606,2.09   c0.341,0.123,0.668,0.24,0.97,0.354c1.312,0.492,1.642,2.126,1.651,2.125v4.998c0,0.09-0.019,0.867-0.67,0.867   c-0.122,0-0.262-0.021-0.417-0.065c-2.816-0.798-6.436-2.113-7.729-3.118C42.31,274.512,43.902,269.751,44.234,269.105z    M324.034,272.442l6.464-0.731l0.38,0.034c0.015,0.001,0.029,0.002,0.045,0.002c0.01,0,0.018-0.005,0.027-0.006   c0.005,0,0.01,0.003,0.015,0.003c0.002,0,0.004,0,0.005,0l1.57-0.153c0.107,0,0.209-0.023,0.302-0.064l1.475,1.895l4.072,0.131   l0.287-1.433l-0.808-1.303l0.322-0.965l5.991-0.521c0.294,2.364,0.758,4.575,1.355,6.618l-6.184-0.495   c-0.204-0.033-19.599-3.103-46.495-2.206l17.133-1.928L324.034,272.442z M322.038,269.953c0.861-0.139,4.261-0.685,8.123-1.294   v2.018L322.038,269.953z M331.161,270.723v-2.222c0.378-0.06,0.758-0.12,1.139-0.179v2.288L331.161,270.723z M361.13,263.334   c0-2.359,0.232-4.62,0.663-6.705c0.553-2.335,1.397-4.369,2.497-5.941c2.34-0.217,5.834-0.537,9.556-0.873   c2.551,2.836,4.127,7.965,4.127,13.52c0,8.861-3.783,15.802-8.611,15.802c-3.455,0-6.284-3.612-7.571-9.049   C361.367,268.024,361.13,265.754,361.13,263.334z M371.927,289.516c0.243-0.051,0.482-0.125,0.722-0.194   C372.423,289.393,372.184,289.458,371.927,289.516z M370.477,281.043c-2.03,0-3.868-1.111-5.368-3.037   c1.254,1.17,2.694,1.83,4.253,1.83c5.221,0,9.311-7.248,9.311-16.502c0-5.572-1.489-10.553-3.995-13.595   c0.633-0.058,1.269-0.114,1.904-0.171c2.264,3.359,3.565,8.342,3.565,13.766C380.147,273.265,375.899,281.043,370.477,281.043z    M390.826,247.377c-4.458,0.247-29.293,2.562-29.553,2.586c-0.1,0.011-2.466,0.291-3.911,2.008c-0.151,0.18-0.302,0.41-0.452,0.67   l-0.032-0.007c-0.008,0.036-0.014,0.073-0.021,0.109c-0.386,0.688-0.775,1.591-1.207,2.604c-0.945,2.221-2.121,4.984-3.734,6.402   c-2.762,2.428-5.291,3.412-10.824,4.215c-5.688,0.824-19.288,3.012-19.401,3.031l-67.747,7.623   c2.392-8.587,2.677-15.953,2.63-39.562l0.007-0.001l-0.001-0.473c0-0.092-0.013-9.335-0.442-26.971   c-0.464-19.053-1.028-24.99-1.229-26.575c24.671,0.862,46.454,1.782,46.776,1.795l91.638,3.385   c0.735,5.481,1.575,24.742,1.634,34.992l0.039,6.235c0.053,8.239,0.106,16.7,0.059,20.39c-0.223-0.582-0.524-1.102-0.965-1.508   C393.308,247.609,392.238,247.292,390.826,247.377z M396.591,257.79c0.029,0.523,0.11,0.99,0.215,1.43   c-0.724,0.188-1.554,0.315-2.546,0.385c0.782-0.742,1.489-2.004,1.418-4.16l-0.025-0.912c-0.022-0.939-0.049-1.889-0.155-2.779   l0.019-0.406c0.103-2.203,0.038-12.217-0.023-21.902l-0.039-6.235c-0.059-10.207-0.893-29.349-1.627-34.97l2.614,0.097l4.62,0.114   c0.322,3.723,2.553,30.546,2.085,53.584c-0.077,3.804-0.282,6.64-0.638,8.897c-0.698,0.119-1.683,0.244-3.1,0.371l-0.103,0.02   C399.182,251.36,396.281,252.321,396.591,257.79z M407.312,257.708c-1.325,3.328-4.423,3.605-7.256,3.605   c0,0-0.689,0.033-1.328-0.531c-0.674-0.594-1.058-1.62-1.139-3.049c-0.247-4.352,1.669-5.316,1.974-5.441   c4.124-0.371,5.246-0.717,5.442-1.665c0.043-0.206-0.009-0.39-0.128-0.557c0.828,0.177,1.445,0.481,1.796,0.896   C407.642,252.116,408.763,254.065,407.312,257.708z"/><path d="M208.47,289.854c1.876,1.987,4.202,3.038,6.727,3.038h0.002c6.211-0.002,11.639-6.52,12.101-14.529   c0.262-4.533-1.092-8.726-3.714-11.504c-1.876-1.987-4.201-3.038-6.728-3.038c-6.211,0.001-11.64,6.519-12.102,14.529   C204.495,282.882,205.848,287.076,208.47,289.854z M220.931,282.535c-0.687,0-1.322-0.289-1.838-0.836   c-0.751-0.795-1.139-2.007-1.063-3.323c0.134-2.314,1.667-4.197,3.418-4.197c0.687,0,1.321,0.289,1.838,0.835   c0.751,0.796,1.138,2.008,1.062,3.324C224.215,280.652,222.682,282.535,220.931,282.535z M216.86,264.121   c2.439,0,4.689,1.018,6.508,2.943c1.501,1.591,2.563,3.666,3.146,5.999c0.003,0.219-0.001,0.48-0.019,0.797   c-0.062,1.091-1.438,2.239-1.75,2.485c-0.209-0.68-0.542-1.289-0.995-1.769c-0.63-0.668-1.447-1.035-2.301-1.035   c-2.083,0-3.901,2.152-4.054,4.797c0,0.006,0.001,0.012,0.001,0.018c-0.485,0-5.314-0.012-6.026-0.249   c-0.75-0.25-2.084,0.167-2.146-0.021s-0.979-0.854-0.979-0.854s-1.084,0.542-1.271,0.292s-0.479-1.5-0.479-2.125   c0-0.469-0.336-1.404-0.504-1.843C207.833,268.065,212.106,264.122,216.86,264.121z"/></g><text x="0" y="440.2" fill="#000000" font-size="5px" font-weight="bold" font-family="'Helvetica Neue', Helvetica, Arial-Unicode, Arial, Sans-serif">Created by John Burraco</text><text x="0" y="445.2" fill="#000000" font-size="5px" font-weight="bold" font-family="'Helvetica Neue', Helvetica, Arial-Unicode, Arial, Sans-serif">from the Noun Project</text></svg>
