<?xml version="1.0" encoding="utf-8"?>
<!-- Generator: Adobe Illustrator 24.0.0, SVG Export Plug-In . SVG Version: 6.00 Build 0)  -->
<svg version="1.1" id="Calque_1" xmlns="http://www.w3.org/2000/svg" xmlns:xlink="http://www.w3.org/1999/xlink" x="0px" y="0px"
	 viewBox="0 0 70.6 58.9" style="enable-background:new 0 0 70.6 58.9;" xml:space="preserve">
<style type="text/css">
	.st0{fill:#FFFFFF;}
</style>
<g>
	<path d="M64.6,4.3h0.8c0.6,0,1-0.4,1-1c0-0.6-0.4-1-1-1h-40c-2.5,0-5.7,1.6-7.2,3.7l-6.5,10.6l-6.6,4.6c-2.1,1.4-3.7,4.6-3.7,7.1v5
		c0,0.6,0.4,1,1,1h3.3c0.9,2.8,3.4,4.9,6.5,5c13.7,5.3,21.4,17.3,21.5,17.5l0.9,1.3l0.8-1.3c0.1-0.1,7.8-12.2,21.5-17.5
		c3-0.2,5.4-2.2,6.2-5h3.3c0.6,0,1-0.4,1-1V22.1L64.6,4.3z M19.8,7.1c1.1-1.5,3.7-2.8,5.6-2.8h5.8L30,13.2c-0.3,1.7-1.9,3.1-3.6,3.1
		H14.2L19.8,7.1z M7.4,32.3c0-2.8,2.2-5,5-5s5,2.2,5,5c0,2.8-2.2,5-5,5S7.4,35.1,7.4,32.3z M34.5,54.4c-2.2-3.1-8.7-11-19-15.9
		c1.7-0.9,3-2.4,3.6-4.3h30.6c0.6,1.9,1.9,3.5,3.7,4.3C43.1,43.4,36.7,51.3,34.5,54.4z M56.4,37.3c-2.8,0-5-2.2-5-5c0-2.8,2.2-5,5-5
		s5,2.2,5,5C61.4,35.1,59.2,37.3,56.4,37.3z M65.4,32.3h-2c0-3.9-3.1-7-7-7c-3.9,0-7,3.1-7,7h-30c0-3.9-3.1-7-7-7c-3.9,0-7,3.1-7,7
		h-2v-4c0-1.9,1.3-4.4,2.8-5.5l6.5-4.5h13.7c2.7,0,5.2-2.1,5.6-4.8l1.3-9.2h29.2l2.9,18.1V32.3z"/>
	<path class="st0" d="M62.5,4.3H33.3L32,13.5c-0.4,2.7-2.9,4.8-5.6,4.8H12.7l-6.5,4.5c-1.5,1.1-2.8,3.6-2.8,5.5v4h2c0-3.9,3.1-7,7-7
		c3.9,0,7,3.1,7,7h30c0-3.9,3.1-7,7-7c3.9,0,7,3.1,7,7h2v-9.9L62.5,4.3z M53.6,17.5L47.1,24c-0.4,0.4-1,0.4-1.4,0l-6.5-6.5
		c-1.8-1.8-1.8-4.6,0-6.4l0.1-0.1c1.6-1.8,4.5-1.8,6.2,0l0.8,0.8l0.8-0.8c1.8-1.8,4.6-1.8,6.4,0l0.1,0.1
		C55.4,12.9,55.4,15.7,53.6,17.5z"/>
	<circle class="st0" cx="56.4" cy="32.3" r="5"/>
	<path class="st0" d="M53.3,38.6c-10.3,4.8-16.7,12.8-18.9,15.8c-2.2-3.1-8.7-11-19-15.9c1.7-0.9,3-2.4,3.6-4.3h30.6
		C50.2,36.2,51.6,37.7,53.3,38.6z"/>
	<circle class="st0" cx="12.4" cy="32.3" r="5"/>
	<path class="st0" d="M31.2,4.3L30,13.2c-0.3,1.7-1.9,3.1-3.6,3.1H14.2l5.6-9.2c1.1-1.5,3.7-2.8,5.6-2.8H31.2z"/>
	<path d="M53.6,11.1L53.5,11c-1.8-1.8-4.6-1.8-6.4,0l-0.8,0.8L45.5,11c-1.7-1.8-4.6-1.8-6.2,0l-0.1,0.1c-1.8,1.8-1.8,4.6,0,6.4
		l6.5,6.5c0.4,0.4,1,0.4,1.4,0l6.5-6.5C55.4,15.7,55.4,12.9,53.6,11.1z M52.1,16l-5.8,5.8L40.5,16c-1-1-1-2.6,0-3.5l0.1-0.1
		c0.9-1,2.5-1,3.5,0l1.5,1.5c0.4,0.4,1,0.4,1.4,0l1.5-1.5c0.9-1,2.5-1,3.5,0l0.1,0.1C53.1,13.4,53.1,15,52.1,16z"/>
	<path class="st0" d="M52.1,16l-5.8,5.8L40.5,16c-1-1-1-2.6,0-3.5l0.1-0.1c0.9-1,2.5-1,3.5,0l1.5,1.5c0.4,0.4,1,0.4,1.4,0l1.5-1.5
		c0.9-1,2.5-1,3.5,0l0.1,0.1C53.1,13.4,53.1,15,52.1,16z"/>
</g>
</svg>
