<svg xmlns="http://www.w3.org/2000/svg" viewBox="0 0 66 46.25" x="0px" y="0px"><path fill="#000000" fill-rule="evenodd" d="M718.710121,224 C717.849572,226.891489 715.171021,229 712,229 C708.828979,229 706.150428,226.891489 705.289879,224 L674.710121,224 C673.849572,226.891489 671.171021,229 668,229 C664.828979,229 662.150428,226.891489 661.289879,224 L658,224 C657.447715,224 657,223.552285 657,223 L657,218.002369 C657,215.465674 658.625062,212.341801 660.700912,210.888706 L667.255552,206.300458 L673.746706,195.678566 C675.312891,193.582811 678.477294,192 681.000026,192 L721,192 C721.552285,192 722,192.447715 722,193 C722,193.552285 721.552285,194 721,194 L720.170283,194 L722.987763,211.844037 L723,212 L723,223 C723,223.552285 722.552285,224 722,224 L718.710121,224 Z M688.867295,194 L687.55505,203.18572 C687.172757,205.861767 684.706319,208 682.00077,208 L668.315222,208 L661.847836,212.52717 C660.306856,213.605856 659,216.118039 659,218.002369 L659,222 L661,222 C661,218.134007 664.134007,215 668,215 C671.865993,215 675,218.134007 675,222 L705,222 C705,218.134007 708.134007,215 712,215 C715.865993,215 719,218.134007 719,222 L721,222 L721,212.078461 L718.145506,194 L688.867295,194 Z M686.84699,194 L681.000026,194 C679.106923,194 676.535251,195.286332 675.399988,196.800016 L669.782307,206 L682.00077,206 C683.711195,206 685.33364,204.593452 685.575151,202.902877 L686.84699,194 Z M668,227 C670.761424,227 673,224.761424 673,222 C673,219.238576 670.761424,217 668,217 C665.238576,217 663,219.238576 663,222 C663,224.761424 665.238576,227 668,227 Z M712,227 C714.761424,227 717,224.761424 717,222 C717,219.238576 714.761424,217 712,217 C709.238576,217 707,219.238576 707,222 C707,224.761424 709.238576,227 712,227 Z M701.106303,200.690288 L701.928003,201.511988 L702.749702,200.690288 C704.503948,198.936043 707.353165,198.93715 709.105813,200.689798 L709.164406,200.748391 C710.920342,202.504327 710.921178,205.347239 709.163916,207.104502 L702.63511,213.633308 C702.244585,214.023832 701.61142,214.023832 701.220896,213.633308 L694.69209,207.104502 C692.934827,205.347239 692.935664,202.504327 694.6916,200.748391 L694.750192,200.689798 C696.502841,198.93715 699.352058,198.936043 701.106303,200.690288 Z M696.106303,205.690288 L701.928003,211.511988 L707.749702,205.690288 C708.72573,204.714261 708.725266,203.137678 707.750192,202.162604 L707.6916,202.104012 C706.719754,201.132166 705.136867,201.131551 704.163916,202.104502 L702.63511,203.633308 C702.244585,204.023832 701.61142,204.023832 701.220896,203.633308 L699.69209,202.104502 C698.719139,201.131551 697.136252,201.132166 696.164406,202.104012 L696.105813,202.162604 C695.13074,203.137678 695.130276,204.714261 696.106303,205.690288 Z" transform="translate(-657 -192)"/><text x="0" y="52" fill="#000000" font-size="5px" font-weight="bold" font-family="'Helvetica Neue', Helvetica, Arial-Unicode, Arial, Sans-serif">Created by Andrejs Kirma</text><text x="0" y="57" fill="#000000" font-size="5px" font-weight="bold" font-family="'Helvetica Neue', Helvetica, Arial-Unicode, Arial, Sans-serif">from the Noun Project</text></svg>