<?xml version="1.0" encoding="utf-8"?>
<!-- Generator: Adobe Illustrator 24.0.0, SVG Export Plug-In . SVG Version: 6.00 Build 0)  -->
<svg version="1.1" xmlns="http://www.w3.org/2000/svg" xmlns:xlink="http://www.w3.org/1999/xlink" x="0px" y="0px"
	 viewBox="0 0 66 55.9" style="enable-background:new 0 0 66 55.9;" xml:space="preserve">
<style type="text/css">
	.st0{fill-rule:evenodd;clip-rule:evenodd;}
	.st1{fill:none;stroke:#000000;stroke-width:2;stroke-miterlimit:10;}
</style>
<g id="Calque_1">
	<path class="st0" d="M61.7,32c-0.9,2.9-3.5,5-6.7,5s-5.8-2.1-6.7-5H17.7c-0.9,2.9-3.5,5-6.7,5s-5.8-2.1-6.7-5H1c-0.6,0-1-0.4-1-1
		v-5c0-2.5,1.6-5.7,3.7-7.1l6.6-4.6l6.5-10.6C18.3,1.6,21.5,0,24,0h40c0.6,0,1,0.4,1,1s-0.4,1-1,1h-0.8L66,19.8l0,0.2v11
		c0,0.6-0.4,1-1,1H61.7z M31.9,2l-1.3,9.2C30.2,13.9,27.7,16,25,16H11.3l-6.5,4.5C3.3,21.6,2,24.1,2,26v4h2c0-3.9,3.1-7,7-7
		s7,3.1,7,7h30c0-3.9,3.1-7,7-7s7,3.1,7,7h2v-9.9L61.1,2H31.9z M29.8,2H24c-1.9,0-4.5,1.3-5.6,2.8L12.8,14H25c1.7,0,3.3-1.4,3.6-3.1
		L29.8,2z M11,35c2.8,0,5-2.2,5-5s-2.2-5-5-5s-5,2.2-5,5S8.2,35,11,35z M55,35c2.8,0,5-2.2,5-5s-2.2-5-5-5s-5,2.2-5,5S52.2,35,55,35
		z M44.1,8.7l0.8,0.8l0.8-0.8c1.8-1.8,4.6-1.8,6.4,0l0.1,0.1c1.8,1.8,1.8,4.6,0,6.4l-6.5,6.5c-0.4,0.4-1,0.4-1.4,0l-6.5-6.5
		c-1.8-1.8-1.8-4.6,0-6.4l0.1-0.1C39.5,6.9,42.4,6.9,44.1,8.7z M39.1,13.7l5.8,5.8l5.8-5.8c1-1,1-2.6,0-3.5l-0.1-0.1
		c-1-1-2.6-1-3.5,0l-1.5,1.5c-0.4,0.4-1,0.4-1.4,0l-1.5-1.5c-1-1-2.6-1-3.5,0l-0.1,0.1C38.1,11.1,38.1,12.7,39.1,13.7z"/>
</g>
<g id="Calque_2">
	<path class="st1" d="M55.2,36c-14.3,5.5-22.1,17.9-22.1,17.9S25.3,41.5,11,36"/>
</g>
</svg>
