<svg id="Capa_1" enable-background="new 0 0 512 512" height="512" viewBox="0 0 512 512" width="512" xmlns="http://www.w3.org/2000/svg"><path d="m414.143 149.377c-10.147-23.678-36.795-42.635-62.809-45.595v97.052h84.861z"/><path d="m111.4 342.232c-18.307 0-33.199 14.894-33.199 33.201 0 18.306 14.893 33.199 33.199 33.199s33.199-14.894 33.199-33.199c.001-18.307-14.892-33.201-33.199-33.201z"/><path d="m0 158.531v176.734c0 28.662 21.973 52.279 49.955 54.915-1.137-4.735-1.754-9.669-1.754-14.747 0-34.85 28.351-63.201 63.199-63.201s63.199 28.352 63.199 63.201c0 5.168-.637 10.189-1.813 15h68.217v-287.066h-185.835c-30.42 0-55.168 24.746-55.168 55.164zm175.67 73.369h16.066c8.285 0 15 6.716 15 15s-6.715 15-15 15h-16.066c-8.283 0-15-6.716-15-15s6.717-15 15-15z"/><path d="m472.9 280.1h39.1v-9.1c0-15.821-5.728-30.098-14.875-40.166h-160.791c-8.285 0-15-6.716-15-15v-112.467h-50.33v287.066h68.213c-1.176-4.811-1.813-9.832-1.813-15 0-34.85 28.352-63.201 63.199-63.201 34.848 0 63.197 28.352 63.197 63.201 0 5.078-.619 10.012-1.756 14.747 27.985-2.635 49.956-26.252 49.956-54.914v-25.166h-39.1c-8.283 0-15-6.716-15-15 0-8.285 6.717-15 15-15z"/><path d="m400.603 342.232c-18.307 0-33.199 14.894-33.199 33.201 0 18.306 14.893 33.199 33.199 33.199 18.305 0 33.197-14.894 33.197-33.199.001-18.307-14.892-33.201-33.197-33.201z"/></svg>